<?xml version="1.0" encoding="UTF-8"?>
<svg xmlns="http://www.w3.org/2000/svg" xmlns:xlink="http://www.w3.org/1999/xlink" width="1080" height="1920" viewBox="0 0 1080 1920">
<defs>
<g>
<g id="glyph-0-0">
<path d="M 0.296875 -2.324219 L 0.667969 -2.324219 L 0.667969 -1.921875 C 0.699219 -2 0.773438 -2.097656 0.890625 -2.207031 C 1.011719 -2.320312 1.148438 -2.375 1.300781 -2.375 C 1.308594 -2.375 1.320312 -2.375 1.339844 -2.375 C 1.355469 -2.371094 1.386719 -2.371094 1.429688 -2.367188 L 1.429688 -1.953125 C 1.40625 -1.957031 1.382812 -1.960938 1.363281 -1.960938 C 1.34375 -1.964844 1.324219 -1.964844 1.300781 -1.964844 C 1.101562 -1.964844 0.953125 -1.902344 0.847656 -1.773438 C 0.742188 -1.648438 0.6875 -1.5 0.6875 -1.335938 L 0.6875 0 L 0.296875 0 Z "/>
</g>
<g id="glyph-0-1">
<path d="M 1.207031 -0.25 C 1.46875 -0.25 1.644531 -0.351562 1.742188 -0.546875 C 1.839844 -0.742188 1.886719 -0.960938 1.886719 -1.199219 C 1.886719 -1.417969 1.851562 -1.59375 1.78125 -1.730469 C 1.671875 -1.945312 1.480469 -2.050781 1.214844 -2.050781 C 0.976562 -2.050781 0.800781 -1.960938 0.691406 -1.777344 C 0.582031 -1.59375 0.53125 -1.375 0.53125 -1.117188 C 0.53125 -0.871094 0.582031 -0.664062 0.691406 -0.5 C 0.800781 -0.335938 0.972656 -0.25 1.207031 -0.25 Z M 1.222656 -2.390625 C 1.523438 -2.390625 1.777344 -2.292969 1.984375 -2.09375 C 2.191406 -1.894531 2.292969 -1.597656 2.292969 -1.210938 C 2.292969 -0.835938 2.203125 -0.527344 2.019531 -0.28125 C 1.835938 -0.0390625 1.554688 0.0859375 1.171875 0.0859375 C 0.851562 0.0859375 0.597656 -0.0234375 0.410156 -0.238281 C 0.222656 -0.457031 0.128906 -0.746094 0.128906 -1.109375 C 0.128906 -1.5 0.226562 -1.8125 0.425781 -2.042969 C 0.625 -2.273438 0.890625 -2.390625 1.222656 -2.390625 Z "/>
</g>
<g id="glyph-0-2">
<path d="M 0.464844 -2.324219 L 0.914062 -0.492188 L 1.367188 -2.324219 L 1.804688 -2.324219 L 2.261719 -0.503906 L 2.738281 -2.324219 L 3.128906 -2.324219 L 2.453125 0 L 2.046875 0 L 1.574219 -1.800781 L 1.117188 0 L 0.710938 0 L 0.0390625 -2.324219 Z "/>
</g>
<g id="glyph-0-3">
<path d="M 0.519531 -0.730469 C 0.53125 -0.597656 0.5625 -0.5 0.617188 -0.429688 C 0.714844 -0.304688 0.886719 -0.242188 1.128906 -0.242188 C 1.273438 -0.242188 1.402344 -0.273438 1.511719 -0.335938 C 1.621094 -0.398438 1.675781 -0.496094 1.675781 -0.628906 C 1.675781 -0.726562 1.632812 -0.804688 1.542969 -0.855469 C 1.488281 -0.886719 1.375 -0.921875 1.207031 -0.964844 L 0.898438 -1.042969 C 0.699219 -1.09375 0.554688 -1.148438 0.460938 -1.207031 C 0.292969 -1.3125 0.207031 -1.460938 0.207031 -1.648438 C 0.207031 -1.867188 0.289062 -2.046875 0.445312 -2.179688 C 0.605469 -2.316406 0.816406 -2.386719 1.085938 -2.386719 C 1.433594 -2.386719 1.6875 -2.28125 1.84375 -2.078125 C 1.941406 -1.945312 1.988281 -1.804688 1.984375 -1.65625 L 1.613281 -1.65625 C 1.605469 -1.746094 1.578125 -1.824219 1.519531 -1.898438 C 1.429688 -2 1.277344 -2.050781 1.054688 -2.050781 C 0.90625 -2.050781 0.796875 -2.023438 0.71875 -1.964844 C 0.644531 -1.910156 0.605469 -1.835938 0.605469 -1.742188 C 0.605469 -1.640625 0.65625 -1.558594 0.753906 -1.5 C 0.8125 -1.464844 0.898438 -1.429688 1.011719 -1.402344 L 1.269531 -1.339844 C 1.550781 -1.273438 1.738281 -1.207031 1.832031 -1.144531 C 1.984375 -1.042969 2.0625 -0.886719 2.0625 -0.671875 C 2.0625 -0.464844 1.984375 -0.289062 1.824219 -0.136719 C 1.667969 0.015625 1.429688 0.0898438 1.109375 0.0898438 C 0.761719 0.0898438 0.519531 0.0117188 0.375 -0.144531 C 0.230469 -0.304688 0.152344 -0.496094 0.144531 -0.730469 Z "/>
</g>
<g id="glyph-0-4">
<path d="M 1.011719 -3.1875 L 1.339844 -3.1875 L 0.328125 0 L 0 0 Z "/>
</g>
</g>
</defs>
<g fill="rgb(43.137255%, 45.098039%, 50.980392%)" fill-opacity="1">
<use xlink:href="#glyph-0-0" x="30" y="23.421875"/>
<use xlink:href="#glyph-0-1" x="31" y="23.421875"/>
<use xlink:href="#glyph-0-2" x="33" y="23.421875"/>
<use xlink:href="#glyph-0-3" x="36" y="23.421875"/>
<use xlink:href="#glyph-0-4" x="38" y="23.421875"/>
<use xlink:href="#glyph-0-3" x="39" y="23.421875"/>
</g>
</svg>
