<?xml version="1.0" encoding="UTF-8"?>
<svg xmlns="http://www.w3.org/2000/svg" xmlns:xlink="http://www.w3.org/1999/xlink" width="1080" height="1920" viewBox="0 0 1080 1920">
<defs>
<g>
<g id="glyph-0-0">
<path d="M 2.144531 -4.089844 C 2.519531 -4.089844 2.84375 -4.015625 3.117188 -3.871094 C 3.511719 -3.664062 3.753906 -3.296875 3.84375 -2.777344 L 3.308594 -2.777344 C 3.242188 -3.070312 3.109375 -3.28125 2.90625 -3.414062 C 2.703125 -3.546875 2.441406 -3.613281 2.132812 -3.613281 C 1.761719 -3.613281 1.453125 -3.476562 1.199219 -3.199219 C 0.949219 -2.921875 0.820312 -2.507812 0.820312 -1.960938 C 0.820312 -1.488281 0.925781 -1.101562 1.132812 -0.804688 C 1.339844 -0.507812 1.679688 -0.359375 2.152344 -0.359375 C 2.511719 -0.359375 2.808594 -0.460938 3.046875 -0.671875 C 3.28125 -0.878906 3.402344 -1.21875 3.40625 -1.683594 L 2.160156 -1.683594 L 2.160156 -2.132812 L 3.910156 -2.132812 L 3.910156 0 L 3.5625 0 L 3.429688 -0.511719 C 3.25 -0.3125 3.085938 -0.171875 2.945312 -0.09375 C 2.707031 0.0390625 2.40625 0.105469 2.042969 0.105469 C 1.570312 0.105469 1.164062 -0.046875 0.824219 -0.351562 C 0.453125 -0.734375 0.269531 -1.261719 0.269531 -1.929688 C 0.269531 -2.597656 0.449219 -3.128906 0.8125 -3.523438 C 1.15625 -3.898438 1.597656 -4.089844 2.144531 -4.089844 Z "/>
</g>
<g id="glyph-0-1">
<path d="M 0.476562 -3.984375 L 2.269531 -3.984375 C 2.621094 -3.984375 2.90625 -3.886719 3.125 -3.683594 C 3.34375 -3.484375 3.449219 -3.203125 3.449219 -2.84375 C 3.449219 -2.53125 3.355469 -2.261719 3.160156 -2.03125 C 2.964844 -1.800781 2.667969 -1.683594 2.269531 -1.683594 L 1.015625 -1.683594 L 1.015625 0 L 0.476562 0 Z M 2.90625 -2.839844 C 2.90625 -3.132812 2.796875 -3.332031 2.578125 -3.4375 C 2.460938 -3.492188 2.296875 -3.519531 2.089844 -3.519531 L 1.015625 -3.519531 L 1.015625 -2.140625 L 2.089844 -2.140625 C 2.332031 -2.140625 2.527344 -2.191406 2.679688 -2.296875 C 2.832031 -2.398438 2.90625 -2.578125 2.90625 -2.839844 Z "/>
</g>
<g id="glyph-0-2">
<path d="M 3.324219 -3.984375 L 3.324219 -3.511719 L 1.980469 -3.511719 L 1.980469 0 L 1.433594 0 L 1.433594 -3.511719 L 0.0898438 -3.511719 L 0.0898438 -3.984375 Z "/>
</g>
<g id="glyph-0-3">
<path d="M 0.230469 -1.796875 L 1.59375 -1.796875 L 1.59375 -1.296875 L 0.230469 -1.296875 Z "/>
</g>
<g id="glyph-0-4">
<path d="M 1.835938 -1.375 L 1.835938 -3.136719 L 0.589844 -1.375 Z M 1.84375 0 L 1.84375 -0.949219 L 0.140625 -0.949219 L 0.140625 -1.425781 L 1.921875 -3.894531 L 2.332031 -3.894531 L 2.332031 -1.375 L 2.90625 -1.375 L 2.90625 -0.949219 L 2.332031 -0.949219 L 2.332031 0 Z "/>
</g>
<g id="glyph-0-5">
<path d="M 1.511719 -0.316406 C 1.835938 -0.316406 2.058594 -0.4375 2.175781 -0.683594 C 2.296875 -0.929688 2.355469 -1.199219 2.355469 -1.5 C 2.355469 -1.769531 2.3125 -1.992188 2.226562 -2.160156 C 2.089844 -2.429688 1.851562 -2.5625 1.515625 -2.5625 C 1.21875 -2.5625 1 -2.449219 0.867188 -2.222656 C 0.730469 -1.996094 0.660156 -1.71875 0.660156 -1.398438 C 0.660156 -1.089844 0.730469 -0.832031 0.867188 -0.625 C 1 -0.417969 1.214844 -0.316406 1.511719 -0.316406 Z M 1.53125 -2.988281 C 1.90625 -2.988281 2.222656 -2.863281 2.480469 -2.613281 C 2.738281 -2.363281 2.867188 -2 2.867188 -1.515625 C 2.867188 -1.046875 2.753906 -0.660156 2.527344 -0.351562 C 2.296875 -0.046875 1.945312 0.105469 1.464844 0.105469 C 1.066406 0.105469 0.746094 -0.03125 0.511719 -0.300781 C 0.277344 -0.570312 0.160156 -0.933594 0.160156 -1.390625 C 0.160156 -1.878906 0.285156 -2.265625 0.53125 -2.554688 C 0.78125 -2.84375 1.113281 -2.988281 1.53125 -2.988281 Z "/>
</g>
</g>
</defs>
<g fill="rgb(94.901961%, 94.901961%, 96.078431%)" fill-opacity="1">
<use xlink:href="#glyph-0-0" x="30" y="24.27832"/>
<use xlink:href="#glyph-0-1" x="34" y="24.27832"/>
<use xlink:href="#glyph-0-2" x="38" y="24.27832"/>
<use xlink:href="#glyph-0-3" x="41" y="24.27832"/>
<use xlink:href="#glyph-0-4" x="43" y="24.27832"/>
<use xlink:href="#glyph-0-5" x="46" y="24.27832"/>
</g>
</svg>
