<?xml version="1.0" encoding="UTF-8"?>
<svg xmlns="http://www.w3.org/2000/svg" xmlns:xlink="http://www.w3.org/1999/xlink" width="1080" height="1920" viewBox="0 0 1080 1920">
<defs>
<g>
<g id="glyph-0-0">
<path d="M 0.285156 -2.324219 L 0.671875 -2.324219 L 0.671875 -1.996094 C 0.765625 -2.109375 0.847656 -2.191406 0.925781 -2.242188 C 1.054688 -2.332031 1.199219 -2.375 1.363281 -2.375 C 1.546875 -2.375 1.695312 -2.332031 1.808594 -2.238281 C 1.875 -2.1875 1.929688 -2.109375 1.984375 -2.007812 C 2.070312 -2.132812 2.171875 -2.226562 2.289062 -2.285156 C 2.40625 -2.347656 2.539062 -2.375 2.683594 -2.375 C 2.996094 -2.375 3.210938 -2.261719 3.324219 -2.039062 C 3.382812 -1.917969 3.414062 -1.753906 3.414062 -1.546875 L 3.414062 0 L 3.007812 0 L 3.007812 -1.613281 C 3.007812 -1.769531 2.96875 -1.875 2.890625 -1.933594 C 2.8125 -1.992188 2.71875 -2.019531 2.609375 -2.019531 C 2.457031 -2.019531 2.324219 -1.96875 2.210938 -1.867188 C 2.101562 -1.765625 2.046875 -1.59375 2.046875 -1.351562 L 2.046875 0 L 1.648438 0 L 1.648438 -1.515625 C 1.648438 -1.675781 1.628906 -1.789062 1.59375 -1.863281 C 1.535156 -1.972656 1.421875 -2.023438 1.261719 -2.023438 C 1.113281 -2.023438 0.980469 -1.96875 0.859375 -1.851562 C 0.738281 -1.738281 0.675781 -1.53125 0.675781 -1.234375 L 0.675781 0 L 0.285156 0 Z "/>
</g>
<g id="glyph-0-1">
<path d="M 0.519531 -0.730469 C 0.53125 -0.597656 0.5625 -0.5 0.617188 -0.429688 C 0.714844 -0.304688 0.886719 -0.242188 1.128906 -0.242188 C 1.273438 -0.242188 1.402344 -0.273438 1.511719 -0.335938 C 1.621094 -0.398438 1.675781 -0.496094 1.675781 -0.628906 C 1.675781 -0.726562 1.632812 -0.804688 1.542969 -0.855469 C 1.488281 -0.886719 1.375 -0.921875 1.207031 -0.964844 L 0.898438 -1.042969 C 0.699219 -1.09375 0.554688 -1.148438 0.460938 -1.207031 C 0.292969 -1.3125 0.207031 -1.460938 0.207031 -1.648438 C 0.207031 -1.867188 0.289062 -2.046875 0.445312 -2.179688 C 0.605469 -2.316406 0.816406 -2.386719 1.085938 -2.386719 C 1.433594 -2.386719 1.6875 -2.28125 1.84375 -2.078125 C 1.941406 -1.945312 1.988281 -1.804688 1.984375 -1.65625 L 1.613281 -1.65625 C 1.605469 -1.746094 1.578125 -1.824219 1.519531 -1.898438 C 1.429688 -2 1.277344 -2.050781 1.054688 -2.050781 C 0.90625 -2.050781 0.796875 -2.023438 0.71875 -1.964844 C 0.644531 -1.910156 0.605469 -1.835938 0.605469 -1.742188 C 0.605469 -1.640625 0.65625 -1.558594 0.753906 -1.5 C 0.8125 -1.464844 0.898438 -1.429688 1.011719 -1.402344 L 1.269531 -1.339844 C 1.550781 -1.273438 1.738281 -1.207031 1.832031 -1.144531 C 1.984375 -1.042969 2.0625 -0.886719 2.0625 -0.671875 C 2.0625 -0.464844 1.984375 -0.289062 1.824219 -0.136719 C 1.667969 0.015625 1.429688 0.0898438 1.109375 0.0898438 C 0.761719 0.0898438 0.519531 0.0117188 0.375 -0.144531 C 0.230469 -0.304688 0.152344 -0.496094 0.144531 -0.730469 Z "/>
</g>
<g id="glyph-0-2">
<rect x="0" y="0" width="0" height="0" mask="url(#mask-0)"/>
</g>
<g id="glyph-0-3">
<path d="M 1.265625 -0.261719 C 1.449219 -0.261719 1.601562 -0.339844 1.722656 -0.492188 C 1.84375 -0.644531 1.902344 -0.871094 1.902344 -1.175781 C 1.902344 -1.359375 1.875 -1.519531 1.824219 -1.652344 C 1.722656 -1.910156 1.535156 -2.039062 1.265625 -2.039062 C 0.996094 -2.039062 0.8125 -1.902344 0.710938 -1.632812 C 0.65625 -1.488281 0.632812 -1.304688 0.632812 -1.082031 C 0.632812 -0.902344 0.660156 -0.75 0.710938 -0.621094 C 0.8125 -0.382812 1 -0.261719 1.265625 -0.261719 Z M 0.257812 -2.3125 L 0.636719 -2.3125 L 0.636719 -2.003906 C 0.714844 -2.109375 0.800781 -2.191406 0.890625 -2.25 C 1.023438 -2.335938 1.179688 -2.378906 1.355469 -2.378906 C 1.621094 -2.378906 1.84375 -2.28125 2.027344 -2.078125 C 2.210938 -1.875 2.300781 -1.585938 2.300781 -1.214844 C 2.300781 -0.707031 2.171875 -0.34375 1.90625 -0.128906 C 1.738281 0.0078125 1.542969 0.078125 1.320312 0.078125 C 1.144531 0.078125 0.996094 0.0390625 0.878906 -0.0351562 C 0.808594 -0.078125 0.730469 -0.15625 0.648438 -0.261719 L 0.648438 0.925781 L 0.257812 0.925781 Z "/>
</g>
<g id="glyph-0-4">
<path d="M 0.550781 -0.792969 C 0.574219 -0.570312 0.679688 -0.414062 0.859375 -0.328125 C 0.953125 -0.285156 1.058594 -0.265625 1.179688 -0.265625 C 1.410156 -0.265625 1.582031 -0.339844 1.695312 -0.484375 C 1.804688 -0.632812 1.863281 -0.796875 1.863281 -0.976562 C 1.863281 -1.195312 1.796875 -1.363281 1.664062 -1.480469 C 1.53125 -1.597656 1.371094 -1.65625 1.1875 -1.65625 C 1.050781 -1.65625 0.9375 -1.632812 0.839844 -1.578125 C 0.746094 -1.527344 0.664062 -1.457031 0.59375 -1.363281 L 0.257812 -1.382812 L 0.492188 -3.054688 L 2.105469 -3.054688 L 2.105469 -2.679688 L 0.785156 -2.679688 L 0.652344 -1.8125 C 0.726562 -1.867188 0.792969 -1.910156 0.859375 -1.9375 C 0.976562 -1.984375 1.109375 -2.007812 1.261719 -2.007812 C 1.546875 -2.007812 1.789062 -1.917969 1.984375 -1.734375 C 2.183594 -1.550781 2.28125 -1.316406 2.28125 -1.035156 C 2.28125 -0.742188 2.191406 -0.484375 2.011719 -0.257812 C 1.828125 -0.0351562 1.539062 0.078125 1.140625 0.078125 C 0.886719 0.078125 0.664062 0.0078125 0.46875 -0.136719 C 0.273438 -0.277344 0.167969 -0.496094 0.144531 -0.792969 Z "/>
</g>
<g id="glyph-0-5">
<path d="M 1.203125 -3.109375 C 1.605469 -3.109375 1.894531 -2.941406 2.074219 -2.609375 C 2.214844 -2.355469 2.28125 -2.003906 2.28125 -1.558594 C 2.28125 -1.136719 2.21875 -0.785156 2.09375 -0.511719 C 1.910156 -0.113281 1.613281 0.0859375 1.199219 0.0859375 C 0.828125 0.0859375 0.550781 -0.078125 0.367188 -0.402344 C 0.214844 -0.671875 0.140625 -1.035156 0.140625 -1.492188 C 0.140625 -1.84375 0.183594 -2.148438 0.277344 -2.398438 C 0.445312 -2.871094 0.753906 -3.109375 1.203125 -3.109375 Z M 1.199219 -0.269531 C 1.402344 -0.269531 1.5625 -0.359375 1.683594 -0.539062 C 1.800781 -0.71875 1.863281 -1.054688 1.863281 -1.542969 C 1.863281 -1.894531 1.820312 -2.1875 1.730469 -2.414062 C 1.644531 -2.640625 1.476562 -2.757812 1.226562 -2.757812 C 0.996094 -2.757812 0.828125 -2.648438 0.722656 -2.429688 C 0.617188 -2.214844 0.5625 -1.898438 0.5625 -1.476562 C 0.5625 -1.160156 0.597656 -0.902344 0.664062 -0.710938 C 0.769531 -0.417969 0.945312 -0.269531 1.199219 -0.269531 Z "/>
</g>
</g>
<image id="source-509" x="0" y="0" width="0" height="0"/>
<mask id="mask-0">
<use xlink:href="#source-509"/>
</mask>
</defs>
<g fill="rgb(43.137255%, 45.098039%, 50.980392%)" fill-opacity="1">
<use xlink:href="#glyph-0-0" x="30" y="23.421875"/>
<use xlink:href="#glyph-0-1" x="34" y="23.421875"/>
<use xlink:href="#glyph-0-2" x="36" y="23.421875"/>
<use xlink:href="#glyph-0-3" x="37" y="23.421875"/>
<use xlink:href="#glyph-0-4" x="39" y="23.421875"/>
<use xlink:href="#glyph-0-5" x="41" y="23.421875"/>
</g>
</svg>
