<?xml version="1.0" encoding="UTF-8"?>
<svg xmlns="http://www.w3.org/2000/svg" xmlns:xlink="http://www.w3.org/1999/xlink" width="1080" height="1920" viewBox="0 0 1080 1920">
<defs>
<g>
<g id="glyph-0-0">
<path d="M 2.660156 -3.1875 L 2.660156 -2.808594 L 1.585938 -2.808594 L 1.585938 0 L 1.144531 0 L 1.144531 -2.808594 L 0.0703125 -2.808594 L 0.0703125 -3.1875 Z "/>
</g>
<g id="glyph-0-1">
<path d="M 0.347656 -3.1875 L 0.785156 -3.1875 L 0.785156 -1.871094 L 2.445312 -1.871094 L 2.445312 -3.1875 L 2.878906 -3.1875 L 2.878906 0 L 2.445312 0 L 2.445312 -1.492188 L 0.785156 -1.492188 L 0.785156 0 L 0.347656 0 Z "/>
</g>
<g id="glyph-0-2">
<path d="M 1.820312 -1.726562 C 2.023438 -1.726562 2.183594 -1.769531 2.300781 -1.847656 C 2.417969 -1.929688 2.476562 -2.074219 2.476562 -2.289062 C 2.476562 -2.515625 2.394531 -2.667969 2.230469 -2.75 C 2.140625 -2.792969 2.023438 -2.816406 1.878906 -2.816406 L 0.824219 -2.816406 L 0.824219 -1.726562 Z M 0.390625 -3.1875 L 1.867188 -3.1875 C 2.109375 -3.1875 2.308594 -3.152344 2.46875 -3.082031 C 2.765625 -2.945312 2.917969 -2.695312 2.917969 -2.328125 C 2.917969 -2.136719 2.878906 -1.980469 2.796875 -1.859375 C 2.71875 -1.738281 2.609375 -1.640625 2.46875 -1.566406 C 2.59375 -1.515625 2.683594 -1.449219 2.75 -1.367188 C 2.8125 -1.285156 2.847656 -1.152344 2.855469 -0.964844 L 2.867188 -0.539062 C 2.871094 -0.417969 2.882812 -0.328125 2.898438 -0.265625 C 2.925781 -0.164062 2.972656 -0.101562 3.039062 -0.0703125 L 3.039062 0 L 2.507812 0 C 2.492188 -0.0273438 2.484375 -0.0625 2.472656 -0.105469 C 2.464844 -0.148438 2.457031 -0.234375 2.453125 -0.359375 L 2.425781 -0.890625 C 2.414062 -1.097656 2.339844 -1.238281 2.195312 -1.308594 C 2.113281 -1.347656 1.980469 -1.367188 1.804688 -1.367188 L 0.824219 -1.367188 L 0.824219 0 L 0.390625 0 Z "/>
</g>
<g id="glyph-0-3">
<path d="M 1.714844 -3.273438 C 2.277344 -3.273438 2.695312 -3.09375 2.964844 -2.730469 C 3.175781 -2.449219 3.28125 -2.089844 3.28125 -1.648438 C 3.28125 -1.171875 3.160156 -0.777344 2.917969 -0.460938 C 2.636719 -0.0898438 2.230469 0.09375 1.707031 0.09375 C 1.214844 0.09375 0.828125 -0.0703125 0.550781 -0.394531 C 0.300781 -0.707031 0.171875 -1.101562 0.171875 -1.578125 C 0.171875 -2.007812 0.28125 -2.378906 0.496094 -2.683594 C 0.769531 -3.078125 1.175781 -3.273438 1.714844 -3.273438 Z M 1.757812 -0.292969 C 2.136719 -0.292969 2.414062 -0.429688 2.582031 -0.703125 C 2.753906 -0.976562 2.839844 -1.289062 2.839844 -1.644531 C 2.839844 -2.019531 2.742188 -2.320312 2.542969 -2.546875 C 2.347656 -2.777344 2.082031 -2.890625 1.742188 -2.890625 C 1.410156 -2.890625 1.140625 -2.777344 0.933594 -2.550781 C 0.726562 -2.324219 0.621094 -1.992188 0.621094 -1.550781 C 0.621094 -1.195312 0.710938 -0.898438 0.886719 -0.65625 C 1.066406 -0.414062 1.355469 -0.292969 1.757812 -0.292969 Z "/>
</g>
<g id="glyph-0-4">
<path d="M 0.808594 -3.1875 L 0.808594 -1.21875 C 0.808594 -0.988281 0.851562 -0.792969 0.9375 -0.640625 C 1.066406 -0.410156 1.285156 -0.292969 1.589844 -0.292969 C 1.953125 -0.292969 2.203125 -0.417969 2.335938 -0.667969 C 2.40625 -0.804688 2.441406 -0.988281 2.441406 -1.21875 L 2.441406 -3.1875 L 2.878906 -3.1875 L 2.878906 -1.398438 C 2.878906 -1.003906 2.828125 -0.703125 2.722656 -0.492188 C 2.527344 -0.109375 2.160156 0.0859375 1.625 0.0859375 C 1.085938 0.0859375 0.71875 -0.109375 0.527344 -0.492188 C 0.421875 -0.703125 0.367188 -1.003906 0.367188 -1.398438 L 0.367188 -3.1875 Z "/>
</g>
<g id="glyph-0-5">
<path d="M 1.714844 -3.269531 C 2.015625 -3.269531 2.273438 -3.210938 2.492188 -3.097656 C 2.808594 -2.929688 3.003906 -2.640625 3.074219 -2.222656 L 2.648438 -2.222656 C 2.597656 -2.457031 2.488281 -2.625 2.324219 -2.730469 C 2.160156 -2.835938 1.953125 -2.890625 1.707031 -2.890625 C 1.410156 -2.890625 1.160156 -2.78125 0.960938 -2.558594 C 0.757812 -2.335938 0.65625 -2.007812 0.65625 -1.570312 C 0.65625 -1.191406 0.742188 -0.882812 0.90625 -0.644531 C 1.074219 -0.40625 1.34375 -0.285156 1.722656 -0.285156 C 2.007812 -0.285156 2.246094 -0.371094 2.4375 -0.535156 C 2.625 -0.703125 2.722656 -0.972656 2.726562 -1.347656 L 1.726562 -1.347656 L 1.726562 -1.707031 L 3.128906 -1.707031 L 3.128906 0 L 2.847656 0 L 2.746094 -0.410156 C 2.597656 -0.25 2.46875 -0.136719 2.355469 -0.0742188 C 2.167969 0.03125 1.925781 0.0859375 1.632812 0.0859375 C 1.257812 0.0859375 0.933594 -0.0390625 0.660156 -0.28125 C 0.363281 -0.589844 0.214844 -1.011719 0.214844 -1.546875 C 0.214844 -2.078125 0.359375 -2.503906 0.648438 -2.820312 C 0.921875 -3.121094 1.28125 -3.269531 1.714844 -3.269531 Z "/>
</g>
<g id="glyph-0-6">
<path d="M 0.378906 -3.1875 L 1.8125 -3.1875 C 2.097656 -3.1875 2.328125 -3.109375 2.5 -2.949219 C 2.671875 -2.789062 2.761719 -2.5625 2.761719 -2.273438 C 2.761719 -2.023438 2.683594 -1.808594 2.527344 -1.625 C 2.375 -1.441406 2.136719 -1.347656 1.8125 -1.347656 L 0.8125 -1.347656 L 0.8125 0 L 0.378906 0 Z M 2.324219 -2.273438 C 2.324219 -2.507812 2.238281 -2.664062 2.0625 -2.75 C 1.96875 -2.792969 1.835938 -2.816406 1.671875 -2.816406 L 0.8125 -2.816406 L 0.8125 -1.710938 L 1.671875 -1.710938 C 1.863281 -1.710938 2.023438 -1.753906 2.144531 -1.835938 C 2.265625 -1.917969 2.324219 -2.0625 2.324219 -2.273438 Z "/>
</g>
</g>
</defs>
<g fill="rgb(43.137255%, 45.098039%, 50.980392%)" fill-opacity="1">
<use xlink:href="#glyph-0-0" x="30" y="23.421875"/>
<use xlink:href="#glyph-0-1" x="33" y="23.421875"/>
<use xlink:href="#glyph-0-2" x="36" y="23.421875"/>
<use xlink:href="#glyph-0-3" x="39" y="23.421875"/>
<use xlink:href="#glyph-0-4" x="42" y="23.421875"/>
<use xlink:href="#glyph-0-5" x="45" y="23.421875"/>
<use xlink:href="#glyph-0-1" x="48" y="23.421875"/>
<use xlink:href="#glyph-0-6" x="51" y="23.421875"/>
<use xlink:href="#glyph-0-4" x="54" y="23.421875"/>
<use xlink:href="#glyph-0-0" x="57" y="23.421875"/>
</g>
</svg>
