<?xml version="1.0" encoding="UTF-8"?>
<svg xmlns="http://www.w3.org/2000/svg" xmlns:xlink="http://www.w3.org/1999/xlink" width="1080" height="1920" viewBox="0 0 1080 1920">
<defs>
<g>
<g id="glyph-0-0">
<path d="M 1.824219 -2.183594 C 2.039062 -2.183594 2.210938 -2.214844 2.328125 -2.273438 C 2.519531 -2.371094 2.613281 -2.539062 2.613281 -2.785156 C 2.613281 -3.03125 2.511719 -3.199219 2.3125 -3.285156 C 2.199219 -3.332031 2.03125 -3.359375 1.804688 -3.359375 L 0.890625 -3.359375 L 0.890625 -2.183594 Z M 1.996094 -0.4375 C 2.3125 -0.4375 2.535156 -0.527344 2.667969 -0.710938 C 2.753906 -0.828125 2.796875 -0.964844 2.796875 -1.128906 C 2.796875 -1.402344 2.671875 -1.589844 2.425781 -1.691406 C 2.296875 -1.742188 2.125 -1.769531 1.910156 -1.769531 L 0.890625 -1.769531 L 0.890625 -0.4375 Z M 0.390625 -3.785156 L 2.015625 -3.785156 C 2.457031 -3.785156 2.773438 -3.652344 2.960938 -3.386719 C 3.070312 -3.230469 3.125 -3.050781 3.125 -2.847656 C 3.125 -2.609375 3.058594 -2.414062 2.921875 -2.261719 C 2.851562 -2.179688 2.75 -2.105469 2.617188 -2.039062 C 2.8125 -1.964844 2.957031 -1.882812 3.054688 -1.789062 C 3.222656 -1.625 3.308594 -1.394531 3.308594 -1.105469 C 3.308594 -0.863281 3.230469 -0.640625 3.078125 -0.441406 C 2.851562 -0.148438 2.488281 0 1.988281 0 L 0.390625 0 Z "/>
</g>
<g id="glyph-0-1">
<path d="M 1.433594 -0.300781 C 1.742188 -0.300781 1.953125 -0.414062 2.066406 -0.648438 C 2.183594 -0.882812 2.238281 -1.140625 2.238281 -1.425781 C 2.238281 -1.683594 2.199219 -1.890625 2.117188 -2.054688 C 1.984375 -2.308594 1.761719 -2.433594 1.441406 -2.433594 C 1.15625 -2.433594 0.949219 -2.328125 0.820312 -2.109375 C 0.691406 -1.894531 0.628906 -1.632812 0.628906 -1.328125 C 0.628906 -1.035156 0.691406 -0.789062 0.820312 -0.59375 C 0.949219 -0.398438 1.15625 -0.300781 1.433594 -0.300781 Z M 1.453125 -2.839844 C 1.808594 -2.839844 2.109375 -2.722656 2.355469 -2.484375 C 2.601562 -2.246094 2.722656 -1.898438 2.722656 -1.4375 C 2.722656 -0.992188 2.617188 -0.625 2.398438 -0.335938 C 2.183594 -0.046875 1.847656 0.101562 1.390625 0.101562 C 1.011719 0.101562 0.710938 -0.0273438 0.488281 -0.285156 C 0.265625 -0.542969 0.152344 -0.886719 0.152344 -1.320312 C 0.152344 -1.785156 0.269531 -2.152344 0.503906 -2.425781 C 0.738281 -2.703125 1.054688 -2.839844 1.453125 -2.839844 Z "/>
</g>
<g id="glyph-0-2">
<path d="M 0.304688 -3.796875 L 0.753906 -3.796875 L 0.753906 -2.425781 C 0.855469 -2.558594 0.976562 -2.65625 1.117188 -2.726562 C 1.257812 -2.796875 1.410156 -2.832031 1.578125 -2.832031 C 1.921875 -2.832031 2.199219 -2.714844 2.414062 -2.476562 C 2.628906 -2.242188 2.734375 -1.894531 2.734375 -1.433594 C 2.734375 -0.996094 2.628906 -0.632812 2.417969 -0.34375 C 2.207031 -0.0546875 1.914062 0.0859375 1.539062 0.0859375 C 1.328125 0.0859375 1.152344 0.0351562 1.007812 -0.0625 C 0.921875 -0.125 0.828125 -0.222656 0.730469 -0.351562 L 0.730469 0 L 0.304688 0 Z M 1.511719 -0.320312 C 1.761719 -0.320312 1.949219 -0.421875 2.074219 -0.621094 C 2.199219 -0.820312 2.261719 -1.082031 2.261719 -1.410156 C 2.261719 -1.699219 2.199219 -1.941406 2.074219 -2.132812 C 1.949219 -2.324219 1.765625 -2.417969 1.523438 -2.417969 C 1.3125 -2.417969 1.125 -2.339844 0.96875 -2.183594 C 0.808594 -2.027344 0.730469 -1.769531 0.730469 -1.410156 C 0.730469 -1.148438 0.761719 -0.941406 0.828125 -0.777344 C 0.949219 -0.472656 1.175781 -0.320312 1.511719 -0.320312 Z "/>
</g>
</g>
</defs>
<g fill="rgb(94.901961%, 94.901961%, 96.078431%)" fill-opacity="1">
<use xlink:href="#glyph-0-0" x="30" y="24.063477"/>
<use xlink:href="#glyph-0-1" x="34" y="24.063477"/>
<use xlink:href="#glyph-0-2" x="37" y="24.063477"/>
</g>
</svg>
