<?xml version="1.0" encoding="UTF-8"?>
<svg xmlns="http://www.w3.org/2000/svg" xmlns:xlink="http://www.w3.org/1999/xlink" width="1080" height="1920" viewBox="0 0 1080 1920">
<defs>
<g>
<g id="glyph-0-0">
<path d="M 1.789062 -3.480469 C 2.214844 -3.480469 2.550781 -3.367188 2.785156 -3.140625 C 3.023438 -2.914062 3.152344 -2.65625 3.179688 -2.371094 L 2.734375 -2.371094 C 2.683594 -2.589844 2.582031 -2.761719 2.429688 -2.890625 C 2.277344 -3.015625 2.066406 -3.082031 1.792969 -3.082031 C 1.457031 -3.082031 1.1875 -2.964844 0.984375 -2.730469 C 0.777344 -2.496094 0.675781 -2.136719 0.675781 -1.652344 C 0.675781 -1.253906 0.769531 -0.933594 0.953125 -0.6875 C 1.136719 -0.441406 1.414062 -0.316406 1.78125 -0.316406 C 2.121094 -0.316406 2.378906 -0.445312 2.554688 -0.707031 C 2.648438 -0.84375 2.71875 -1.023438 2.765625 -1.246094 L 3.210938 -1.246094 C 3.171875 -0.890625 3.039062 -0.589844 2.816406 -0.347656 C 2.546875 -0.0585938 2.183594 0.0859375 1.726562 0.0859375 C 1.332031 0.0859375 1.003906 -0.03125 0.734375 -0.269531 C 0.382812 -0.585938 0.207031 -1.070312 0.207031 -1.730469 C 0.207031 -2.230469 0.339844 -2.640625 0.605469 -2.957031 C 0.890625 -3.304688 1.285156 -3.480469 1.789062 -3.480469 Z "/>
</g>
<g id="glyph-0-1">
<path d="M 0.660156 -1.09375 C 0.671875 -0.902344 0.714844 -0.746094 0.796875 -0.625 C 0.949219 -0.402344 1.214844 -0.289062 1.601562 -0.289062 C 1.773438 -0.289062 1.929688 -0.3125 2.070312 -0.363281 C 2.34375 -0.457031 2.480469 -0.628906 2.480469 -0.875 C 2.480469 -1.058594 2.421875 -1.191406 2.308594 -1.269531 C 2.191406 -1.34375 2.007812 -1.410156 1.757812 -1.46875 L 1.300781 -1.574219 C 1 -1.640625 0.789062 -1.714844 0.664062 -1.796875 C 0.449219 -1.9375 0.339844 -2.148438 0.339844 -2.429688 C 0.339844 -2.734375 0.445312 -2.984375 0.65625 -3.179688 C 0.867188 -3.375 1.167969 -3.472656 1.550781 -3.472656 C 1.90625 -3.472656 2.207031 -3.386719 2.457031 -3.214844 C 2.707031 -3.042969 2.828125 -2.769531 2.828125 -2.394531 L 2.398438 -2.394531 C 2.375 -2.574219 2.324219 -2.714844 2.25 -2.8125 C 2.109375 -2.988281 1.875 -3.078125 1.539062 -3.078125 C 1.269531 -3.078125 1.074219 -3.019531 0.953125 -2.90625 C 0.835938 -2.792969 0.777344 -2.660156 0.777344 -2.507812 C 0.777344 -2.34375 0.847656 -2.222656 0.984375 -2.144531 C 1.074219 -2.09375 1.28125 -2.035156 1.601562 -1.960938 L 2.074219 -1.851562 C 2.304688 -1.800781 2.480469 -1.726562 2.605469 -1.636719 C 2.820312 -1.480469 2.929688 -1.25 2.929688 -0.949219 C 2.929688 -0.574219 2.792969 -0.304688 2.519531 -0.144531 C 2.246094 0.0195312 1.929688 0.0976562 1.566406 0.0976562 C 1.144531 0.0976562 0.816406 -0.0078125 0.578125 -0.222656 C 0.339844 -0.4375 0.222656 -0.726562 0.226562 -1.09375 Z "/>
</g>
<g id="glyph-0-2">
<path d="M 0.628906 -3.386719 L 1.601562 -0.503906 L 2.5625 -3.386719 L 3.078125 -3.386719 L 1.839844 0 L 1.355469 0 L 0.121094 -3.386719 Z "/>
</g>
<g id="glyph-0-3">
<rect x="0" y="0" width="0" height="0" mask="url(#mask-0)"/>
</g>
<g id="glyph-0-4">
<path d="M 0.644531 -1.910156 C 0.726562 -1.910156 0.796875 -1.882812 0.851562 -1.824219 C 0.910156 -1.765625 0.9375 -1.699219 0.9375 -1.617188 C 0.9375 -1.535156 0.910156 -1.464844 0.851562 -1.40625 C 0.792969 -1.351562 0.726562 -1.320312 0.644531 -1.320312 C 0.5625 -1.320312 0.492188 -1.351562 0.433594 -1.40625 C 0.375 -1.464844 0.347656 -1.535156 0.347656 -1.617188 C 0.347656 -1.699219 0.375 -1.765625 0.433594 -1.824219 C 0.492188 -1.882812 0.558594 -1.910156 0.644531 -1.910156 Z "/>
</g>
<g id="glyph-0-5">
<path d="M 1.226562 0.0898438 C 0.835938 0.0898438 0.554688 -0.015625 0.378906 -0.230469 C 0.203125 -0.445312 0.113281 -0.707031 0.113281 -1.015625 L 0.546875 -1.015625 C 0.566406 -0.800781 0.605469 -0.644531 0.667969 -0.546875 C 0.773438 -0.375 0.96875 -0.289062 1.25 -0.289062 C 1.46875 -0.289062 1.644531 -0.347656 1.777344 -0.464844 C 1.910156 -0.582031 1.972656 -0.730469 1.972656 -0.914062 C 1.972656 -1.140625 1.90625 -1.300781 1.765625 -1.394531 C 1.625 -1.484375 1.433594 -1.527344 1.183594 -1.527344 C 1.15625 -1.527344 1.128906 -1.527344 1.101562 -1.527344 C 1.074219 -1.527344 1.042969 -1.527344 1.015625 -1.523438 L 1.015625 -1.890625 C 1.058594 -1.886719 1.09375 -1.882812 1.121094 -1.882812 C 1.152344 -1.878906 1.183594 -1.878906 1.21875 -1.878906 C 1.375 -1.878906 1.5 -1.902344 1.601562 -1.953125 C 1.777344 -2.039062 1.863281 -2.191406 1.863281 -2.414062 C 1.863281 -2.578125 1.804688 -2.707031 1.6875 -2.792969 C 1.570312 -2.882812 1.433594 -2.929688 1.28125 -2.929688 C 1.003906 -2.929688 0.8125 -2.835938 0.707031 -2.652344 C 0.648438 -2.550781 0.613281 -2.40625 0.605469 -2.21875 L 0.195312 -2.21875 C 0.195312 -2.464844 0.246094 -2.671875 0.34375 -2.84375 C 0.511719 -3.152344 0.808594 -3.308594 1.234375 -3.308594 C 1.570312 -3.308594 1.832031 -3.230469 2.019531 -3.082031 C 2.203125 -2.933594 2.292969 -2.714844 2.292969 -2.429688 C 2.292969 -2.226562 2.238281 -2.0625 2.128906 -1.9375 C 2.0625 -1.859375 1.976562 -1.796875 1.867188 -1.753906 C 2.042969 -1.707031 2.175781 -1.613281 2.273438 -1.476562 C 2.371094 -1.339844 2.421875 -1.175781 2.421875 -0.976562 C 2.421875 -0.664062 2.316406 -0.40625 2.109375 -0.207031 C 1.902344 -0.0078125 1.609375 0.0898438 1.226562 0.0898438 Z "/>
</g>
<g id="glyph-0-6">
<path d="M 1.820312 -3.480469 C 2.417969 -3.480469 2.863281 -3.289062 3.148438 -2.902344 C 3.375 -2.601562 3.488281 -2.21875 3.488281 -1.753906 C 3.488281 -1.246094 3.359375 -0.828125 3.101562 -0.492188 C 2.800781 -0.0976562 2.371094 0.0976562 1.8125 0.0976562 C 1.292969 0.0976562 0.882812 -0.0742188 0.582031 -0.417969 C 0.316406 -0.75 0.183594 -1.167969 0.183594 -1.675781 C 0.183594 -2.132812 0.296875 -2.527344 0.527344 -2.851562 C 0.820312 -3.269531 1.25 -3.480469 1.820312 -3.480469 Z M 1.867188 -0.3125 C 2.273438 -0.3125 2.566406 -0.457031 2.746094 -0.746094 C 2.925781 -1.035156 3.015625 -1.367188 3.015625 -1.746094 C 3.015625 -2.144531 2.910156 -2.464844 2.703125 -2.707031 C 2.496094 -2.949219 2.210938 -3.070312 1.847656 -3.070312 C 1.5 -3.070312 1.214844 -2.953125 0.992188 -2.710938 C 0.769531 -2.46875 0.660156 -2.117188 0.660156 -1.644531 C 0.660156 -1.269531 0.753906 -0.953125 0.945312 -0.699219 C 1.132812 -0.441406 1.441406 -0.3125 1.867188 -0.3125 Z "/>
</g>
<g id="glyph-0-7">
<path d="M 0.359375 -3.386719 L 0.820312 -3.386719 L 0.820312 -0.402344 L 2.535156 -0.402344 L 2.535156 0 L 0.359375 0 Z "/>
</g>
<g id="glyph-0-8">
<path d="M 0.859375 -3.386719 L 0.859375 -1.292969 C 0.859375 -1.046875 0.902344 -0.84375 0.996094 -0.679688 C 1.132812 -0.433594 1.363281 -0.3125 1.6875 -0.3125 C 2.078125 -0.3125 2.339844 -0.445312 2.480469 -0.710938 C 2.554688 -0.855469 2.59375 -1.050781 2.59375 -1.292969 L 2.59375 -3.386719 L 3.058594 -3.386719 L 3.058594 -1.484375 C 3.058594 -1.066406 3.003906 -0.746094 2.890625 -0.523438 C 2.683594 -0.113281 2.296875 0.0898438 1.726562 0.0898438 C 1.152344 0.0898438 0.765625 -0.113281 0.558594 -0.523438 C 0.449219 -0.746094 0.390625 -1.070312 0.390625 -1.484375 L 0.390625 -3.386719 Z "/>
</g>
<g id="glyph-0-9">
<path d="M 0.347656 -3.386719 L 1.003906 -3.386719 L 1.980469 -0.523438 L 2.945312 -3.386719 L 3.59375 -3.386719 L 3.59375 0 L 3.160156 0 L 3.160156 -2 C 3.160156 -2.070312 3.160156 -2.183594 3.164062 -2.34375 C 3.167969 -2.503906 3.167969 -2.675781 3.167969 -2.855469 L 2.203125 0 L 1.746094 0 L 0.773438 -2.855469 L 0.773438 -2.753906 C 0.773438 -2.671875 0.777344 -2.542969 0.78125 -2.375 C 0.785156 -2.203125 0.785156 -2.078125 0.785156 -2 L 0.785156 0 L 0.347656 0 Z "/>
</g>
<g id="glyph-0-10">
<path d="M 0.359375 -3.386719 L 0.902344 -3.386719 L 2.613281 -0.644531 L 2.613281 -3.386719 L 3.046875 -3.386719 L 3.046875 0 L 2.535156 0 L 0.796875 -2.742188 L 0.796875 0 L 0.359375 0 Z "/>
</g>
</g>
<image id="source-111" x="0" y="0" width="0" height="0"/>
<mask id="mask-0">
<use xlink:href="#source-111"/>
</mask>
</defs>
<g fill="rgb(43.137255%, 45.098039%, 50.980392%)" fill-opacity="1">
<use xlink:href="#glyph-0-0" x="30" y="23.636719"/>
<use xlink:href="#glyph-0-1" x="33" y="23.636719"/>
<use xlink:href="#glyph-0-2" x="36" y="23.636719"/>
<use xlink:href="#glyph-0-3" x="39" y="23.636719"/>
<use xlink:href="#glyph-0-4" x="40" y="23.636719"/>
<use xlink:href="#glyph-0-3" x="41" y="23.636719"/>
<use xlink:href="#glyph-0-5" x="42" y="23.636719"/>
<use xlink:href="#glyph-0-3" x="45" y="23.636719"/>
<use xlink:href="#glyph-0-0" x="46" y="23.636719"/>
<use xlink:href="#glyph-0-6" x="49" y="23.636719"/>
<use xlink:href="#glyph-0-7" x="53" y="23.636719"/>
<use xlink:href="#glyph-0-8" x="56" y="23.636719"/>
<use xlink:href="#glyph-0-9" x="59" y="23.636719"/>
<use xlink:href="#glyph-0-10" x="63" y="23.636719"/>
<use xlink:href="#glyph-0-1" x="66" y="23.636719"/>
</g>
</svg>
