<?xml version="1.0" encoding="UTF-8"?>
<svg xmlns="http://www.w3.org/2000/svg" xmlns:xlink="http://www.w3.org/1999/xlink" width="1080" height="1920" viewBox="0 0 1080 1920">
<defs>
<g>
<g id="glyph-0-0">
<path d="M 4.5625 -4.605469 L 1.753906 -4.605469 L 1.753906 -3.320312 L 4.210938 -3.320312 L 4.210938 -2.347656 L 1.753906 -2.347656 L 1.753906 0 L 0.59375 0 L 0.59375 -5.589844 L 4.5625 -5.589844 Z "/>
</g>
<g id="glyph-0-1">
<path d="M 1.617188 -4.140625 L 1.617188 0 L 0.519531 0 L 0.519531 -4.140625 Z M 1.617188 -5.632812 L 1.617188 -4.632812 L 0.519531 -4.632812 L 0.519531 -5.632812 Z "/>
</g>
<g id="glyph-0-2">
<path d="M 0.527344 -5.597656 L 1.609375 -5.597656 L 1.609375 0 L 0.527344 0 Z "/>
</g>
<g id="glyph-0-3">
<path d="M 4.046875 -1.214844 C 4.019531 -0.96875 3.890625 -0.71875 3.664062 -0.46875 C 3.308594 -0.0664062 2.8125 0.136719 2.175781 0.136719 C 1.648438 0.136719 1.183594 -0.03125 0.78125 -0.371094 C 0.378906 -0.710938 0.179688 -1.261719 0.179688 -2.027344 C 0.179688 -2.746094 0.359375 -3.292969 0.722656 -3.675781 C 1.085938 -4.058594 1.558594 -4.25 2.136719 -4.25 C 2.480469 -4.25 2.792969 -4.183594 3.070312 -4.054688 C 3.34375 -3.925781 3.570312 -3.722656 3.753906 -3.445312 C 3.914062 -3.199219 4.019531 -2.914062 4.066406 -2.589844 C 4.09375 -2.398438 4.105469 -2.125 4.101562 -1.769531 L 1.269531 -1.769531 C 1.285156 -1.355469 1.414062 -1.0625 1.660156 -0.894531 C 1.808594 -0.792969 1.988281 -0.742188 2.199219 -0.742188 C 2.421875 -0.742188 2.601562 -0.804688 2.742188 -0.929688 C 2.816406 -1 2.886719 -1.09375 2.941406 -1.214844 Z M 2.976562 -2.484375 C 2.960938 -2.769531 2.871094 -2.988281 2.71875 -3.136719 C 2.5625 -3.285156 2.367188 -3.355469 2.136719 -3.355469 C 1.886719 -3.355469 1.691406 -3.277344 1.554688 -3.121094 C 1.417969 -2.964844 1.332031 -2.75 1.296875 -2.484375 Z "/>
</g>
<g id="glyph-0-4">
<path d="M 3.355469 -3.949219 C 3.679688 -3.742188 3.867188 -3.386719 3.914062 -2.878906 L 2.832031 -2.878906 C 2.816406 -3.019531 2.777344 -3.128906 2.714844 -3.207031 C 2.597656 -3.355469 2.394531 -3.429688 2.109375 -3.429688 C 1.871094 -3.429688 1.703125 -3.390625 1.605469 -3.320312 C 1.503906 -3.246094 1.453125 -3.160156 1.453125 -3.0625 C 1.453125 -2.9375 1.507812 -2.847656 1.613281 -2.792969 C 1.71875 -2.734375 2.097656 -2.632812 2.742188 -2.492188 C 3.171875 -2.390625 3.496094 -2.238281 3.710938 -2.03125 C 3.921875 -1.824219 4.027344 -1.566406 4.027344 -1.253906 C 4.027344 -0.84375 3.875 -0.507812 3.570312 -0.25 C 3.265625 0.0117188 2.796875 0.140625 2.15625 0.140625 C 1.507812 0.140625 1.027344 0.00390625 0.714844 -0.273438 C 0.40625 -0.546875 0.25 -0.894531 0.25 -1.320312 L 1.347656 -1.320312 C 1.371094 -1.128906 1.421875 -0.992188 1.496094 -0.910156 C 1.628906 -0.765625 1.878906 -0.695312 2.242188 -0.695312 C 2.453125 -0.695312 2.621094 -0.726562 2.746094 -0.789062 C 2.871094 -0.851562 2.933594 -0.949219 2.933594 -1.074219 C 2.933594 -1.195312 2.886719 -1.289062 2.785156 -1.351562 C 2.683594 -1.414062 2.304688 -1.523438 1.65625 -1.679688 C 1.1875 -1.796875 0.855469 -1.941406 0.664062 -2.113281 C 0.472656 -2.285156 0.375 -2.535156 0.375 -2.859375 C 0.375 -3.242188 0.527344 -3.570312 0.824219 -3.84375 C 1.125 -4.121094 1.546875 -4.257812 2.09375 -4.257812 C 2.609375 -4.257812 3.03125 -4.15625 3.355469 -3.949219 Z "/>
</g>
</g>
</defs>
<g fill="rgb(94.901961%, 94.901961%, 96.078431%)" fill-opacity="1">
<use xlink:href="#glyph-0-0" x="30" y="25.988281"/>
<use xlink:href="#glyph-0-1" x="35" y="25.988281"/>
<use xlink:href="#glyph-0-2" x="37" y="25.988281"/>
<use xlink:href="#glyph-0-3" x="39" y="25.988281"/>
<use xlink:href="#glyph-0-4" x="43" y="25.988281"/>
</g>
</svg>
