<?xml version="1.0" encoding="UTF-8"?>
<svg xmlns="http://www.w3.org/2000/svg" xmlns:xlink="http://www.w3.org/1999/xlink" width="1080" height="1920" viewBox="0 0 1080 1920">
<defs>
<g>
<g id="glyph-0-0">
<path d="M 0.339844 -3.1875 L 0.769531 -3.1875 L 0.769531 -0.378906 L 2.386719 -0.378906 L 2.386719 0 L 0.339844 0 Z "/>
</g>
<g id="glyph-0-1">
<path d="M 1.976562 -1.304688 L 1.492188 -2.714844 L 0.976562 -1.304688 Z M 1.265625 -3.1875 L 1.753906 -3.1875 L 2.910156 0 L 2.4375 0 L 2.113281 -0.953125 L 0.851562 -0.953125 L 0.507812 0 L 0.0664062 0 Z "/>
</g>
<g id="glyph-0-2">
<path d="M 2.660156 -3.1875 L 2.660156 -2.808594 L 1.585938 -2.808594 L 1.585938 0 L 1.144531 0 L 1.144531 -2.808594 L 0.0703125 -2.808594 L 0.0703125 -3.1875 Z "/>
</g>
<g id="glyph-0-3">
<path d="M 0.378906 -3.1875 L 2.703125 -3.1875 L 2.703125 -2.796875 L 0.800781 -2.796875 L 0.800781 -1.828125 L 2.5625 -1.828125 L 2.5625 -1.460938 L 0.800781 -1.460938 L 0.800781 -0.378906 L 2.738281 -0.378906 L 2.738281 0 L 0.378906 0 Z "/>
</g>
<g id="glyph-0-4">
<path d="M 0.339844 -3.1875 L 0.847656 -3.1875 L 2.457031 -0.605469 L 2.457031 -3.1875 L 2.867188 -3.1875 L 2.867188 0 L 2.386719 0 L 0.75 -2.582031 L 0.75 0 L 0.339844 0 Z "/>
</g>
<g id="glyph-0-5">
<path d="M 1.683594 -3.273438 C 2.085938 -3.273438 2.398438 -3.167969 2.621094 -2.957031 C 2.84375 -2.742188 2.96875 -2.5 2.992188 -2.230469 L 2.570312 -2.230469 C 2.523438 -2.4375 2.429688 -2.597656 2.285156 -2.71875 C 2.144531 -2.839844 1.945312 -2.898438 1.6875 -2.898438 C 1.371094 -2.898438 1.117188 -2.789062 0.925781 -2.566406 C 0.734375 -2.347656 0.636719 -2.007812 0.636719 -1.554688 C 0.636719 -1.179688 0.722656 -0.878906 0.898438 -0.644531 C 1.070312 -0.414062 1.332031 -0.296875 1.675781 -0.296875 C 1.996094 -0.296875 2.238281 -0.417969 2.40625 -0.664062 C 2.492188 -0.792969 2.558594 -0.960938 2.601562 -1.171875 L 3.023438 -1.171875 C 2.984375 -0.835938 2.859375 -0.554688 2.648438 -0.328125 C 2.394531 -0.0546875 2.054688 0.0820312 1.625 0.0820312 C 1.253906 0.0820312 0.945312 -0.03125 0.691406 -0.253906 C 0.359375 -0.550781 0.195312 -1.007812 0.195312 -1.628906 C 0.195312 -2.097656 0.320312 -2.484375 0.570312 -2.785156 C 0.839844 -3.113281 1.207031 -3.273438 1.683594 -3.273438 Z "/>
</g>
<g id="glyph-0-6">
<path d="M 0.0898438 -3.1875 L 0.59375 -3.1875 L 1.511719 -1.65625 L 2.425781 -3.1875 L 2.933594 -3.1875 L 1.726562 -1.285156 L 1.726562 0 L 1.296875 0 L 1.296875 -1.285156 Z "/>
</g>
</g>
</defs>
<g fill="rgb(43.137255%, 45.098039%, 50.980392%)" fill-opacity="1">
<use xlink:href="#glyph-0-0" x="30" y="23.421875"/>
<use xlink:href="#glyph-0-1" x="32" y="23.421875"/>
<use xlink:href="#glyph-0-2" x="35" y="23.421875"/>
<use xlink:href="#glyph-0-3" x="38" y="23.421875"/>
<use xlink:href="#glyph-0-4" x="41" y="23.421875"/>
<use xlink:href="#glyph-0-5" x="44" y="23.421875"/>
<use xlink:href="#glyph-0-6" x="47" y="23.421875"/>
</g>
</svg>
