<?xml version="1.0" encoding="UTF-8"?>
<svg xmlns="http://www.w3.org/2000/svg" xmlns:xlink="http://www.w3.org/1999/xlink" width="1080" height="1920" viewBox="0 0 1080 1920">
<defs>
<g>
<g id="glyph-0-0">
<path d="M 0.285156 -2.3125 L 0.683594 -2.3125 L 0.683594 0 L 0.285156 0 Z M 0.285156 -3.1875 L 0.683594 -3.1875 L 0.683594 -2.746094 L 0.285156 -2.746094 Z "/>
</g>
<g id="glyph-0-1">
<path d="M 0.285156 -2.324219 L 0.65625 -2.324219 L 0.65625 -1.996094 C 0.765625 -2.132812 0.882812 -2.226562 1.007812 -2.289062 C 1.128906 -2.347656 1.265625 -2.375 1.417969 -2.375 C 1.746094 -2.375 1.96875 -2.261719 2.085938 -2.03125 C 2.148438 -1.90625 2.179688 -1.726562 2.179688 -1.492188 L 2.179688 0 L 1.785156 0 L 1.785156 -1.464844 C 1.785156 -1.605469 1.761719 -1.722656 1.722656 -1.808594 C 1.652344 -1.953125 1.527344 -2.023438 1.34375 -2.023438 C 1.25 -2.023438 1.175781 -2.015625 1.117188 -1.996094 C 1.007812 -1.964844 0.914062 -1.902344 0.832031 -1.804688 C 0.769531 -1.730469 0.726562 -1.648438 0.707031 -1.566406 C 0.6875 -1.484375 0.675781 -1.371094 0.675781 -1.21875 L 0.675781 0 L 0.285156 0 Z "/>
</g>
<g id="glyph-0-2">
<path d="M 0.199219 -0.949219 L 0.199219 -1.316406 L 1.144531 -1.316406 L 1.144531 -2.269531 L 1.515625 -2.269531 L 1.515625 -1.316406 L 2.464844 -1.316406 L 2.464844 -0.949219 L 1.515625 -0.949219 L 1.515625 0 L 1.144531 0 L 1.144531 -0.949219 Z "/>
</g>
<g id="glyph-0-3">
<path d="M 1.207031 -0.25 C 1.46875 -0.25 1.644531 -0.351562 1.742188 -0.546875 C 1.839844 -0.742188 1.886719 -0.960938 1.886719 -1.199219 C 1.886719 -1.417969 1.851562 -1.59375 1.78125 -1.730469 C 1.671875 -1.945312 1.480469 -2.050781 1.214844 -2.050781 C 0.976562 -2.050781 0.800781 -1.960938 0.691406 -1.777344 C 0.582031 -1.59375 0.53125 -1.375 0.53125 -1.117188 C 0.53125 -0.871094 0.582031 -0.664062 0.691406 -0.5 C 0.800781 -0.335938 0.972656 -0.25 1.207031 -0.25 Z M 1.222656 -2.390625 C 1.523438 -2.390625 1.777344 -2.292969 1.984375 -2.09375 C 2.191406 -1.894531 2.292969 -1.597656 2.292969 -1.210938 C 2.292969 -0.835938 2.203125 -0.527344 2.019531 -0.28125 C 1.835938 -0.0390625 1.554688 0.0859375 1.171875 0.0859375 C 0.851562 0.0859375 0.597656 -0.0234375 0.410156 -0.238281 C 0.222656 -0.457031 0.128906 -0.746094 0.128906 -1.109375 C 0.128906 -1.5 0.226562 -1.8125 0.425781 -2.042969 C 0.625 -2.273438 0.890625 -2.390625 1.222656 -2.390625 Z "/>
</g>
<g id="glyph-0-4">
<path d="M 0.675781 -2.324219 L 0.675781 -0.78125 C 0.675781 -0.664062 0.695312 -0.566406 0.734375 -0.492188 C 0.804688 -0.351562 0.933594 -0.28125 1.121094 -0.28125 C 1.394531 -0.28125 1.578125 -0.402344 1.675781 -0.648438 C 1.730469 -0.777344 1.757812 -0.957031 1.757812 -1.183594 L 1.757812 -2.324219 L 2.148438 -2.324219 L 2.148438 0 L 1.78125 0 L 1.785156 -0.34375 C 1.734375 -0.253906 1.671875 -0.179688 1.59375 -0.121094 C 1.445312 0 1.265625 0.0625 1.050781 0.0625 C 0.71875 0.0625 0.496094 -0.046875 0.375 -0.269531 C 0.308594 -0.386719 0.277344 -0.546875 0.277344 -0.746094 L 0.277344 -2.324219 Z "/>
</g>
<g id="glyph-0-5">
<path d="M 0.363281 -2.972656 L 0.757812 -2.972656 L 0.757812 -2.324219 L 1.128906 -2.324219 L 1.128906 -2.003906 L 0.757812 -2.003906 L 0.757812 -0.488281 C 0.757812 -0.40625 0.785156 -0.351562 0.84375 -0.324219 C 0.871094 -0.308594 0.921875 -0.300781 0.992188 -0.300781 C 1.011719 -0.300781 1.03125 -0.300781 1.054688 -0.300781 C 1.078125 -0.304688 1.101562 -0.304688 1.128906 -0.308594 L 1.128906 0 C 1.085938 0.0117188 1.039062 0.0234375 0.992188 0.0273438 C 0.941406 0.0351562 0.890625 0.0351562 0.832031 0.0351562 C 0.652344 0.0351562 0.527344 -0.0078125 0.460938 -0.101562 C 0.398438 -0.195312 0.363281 -0.316406 0.363281 -0.464844 L 0.363281 -2.003906 L 0.0507812 -2.003906 L 0.0507812 -2.324219 L 0.363281 -2.324219 Z "/>
</g>
</g>
</defs>
<g fill="rgb(43.137255%, 45.098039%, 50.980392%)" fill-opacity="1">
<use xlink:href="#glyph-0-0" x="30" y="23.421875"/>
<use xlink:href="#glyph-0-1" x="31" y="23.421875"/>
<use xlink:href="#glyph-0-2" x="33" y="23.421875"/>
<use xlink:href="#glyph-0-3" x="36" y="23.421875"/>
<use xlink:href="#glyph-0-4" x="38" y="23.421875"/>
<use xlink:href="#glyph-0-5" x="40" y="23.421875"/>
</g>
</svg>
