<?xml version="1.0" encoding="UTF-8"?>
<svg xmlns="http://www.w3.org/2000/svg" xmlns:xlink="http://www.w3.org/1999/xlink" width="1080" height="1920" viewBox="0 0 1080 1920">
<defs>
<g>
<g id="glyph-0-0">
<path d="M 0.808594 -3.1875 L 0.808594 -1.21875 C 0.808594 -0.988281 0.851562 -0.792969 0.9375 -0.640625 C 1.066406 -0.410156 1.285156 -0.292969 1.589844 -0.292969 C 1.953125 -0.292969 2.203125 -0.417969 2.335938 -0.667969 C 2.40625 -0.804688 2.441406 -0.988281 2.441406 -1.21875 L 2.441406 -3.1875 L 2.878906 -3.1875 L 2.878906 -1.398438 C 2.878906 -1.003906 2.828125 -0.703125 2.722656 -0.492188 C 2.527344 -0.109375 2.160156 0.0859375 1.625 0.0859375 C 1.085938 0.0859375 0.71875 -0.109375 0.527344 -0.492188 C 0.421875 -0.703125 0.367188 -1.003906 0.367188 -1.398438 L 0.367188 -3.1875 Z "/>
</g>
<g id="glyph-0-1">
<path d="M 0.621094 -1.027344 C 0.632812 -0.847656 0.671875 -0.699219 0.75 -0.589844 C 0.890625 -0.378906 1.144531 -0.269531 1.507812 -0.269531 C 1.667969 -0.269531 1.816406 -0.292969 1.949219 -0.339844 C 2.207031 -0.429688 2.335938 -0.589844 2.335938 -0.824219 C 2.335938 -0.996094 2.28125 -1.121094 2.171875 -1.195312 C 2.0625 -1.265625 1.890625 -1.328125 1.65625 -1.382812 L 1.222656 -1.480469 C 0.941406 -1.542969 0.742188 -1.613281 0.625 -1.691406 C 0.421875 -1.824219 0.320312 -2.023438 0.320312 -2.289062 C 0.320312 -2.574219 0.421875 -2.808594 0.617188 -2.992188 C 0.816406 -3.175781 1.097656 -3.269531 1.460938 -3.269531 C 1.792969 -3.269531 2.078125 -3.1875 2.3125 -3.027344 C 2.546875 -2.867188 2.664062 -2.605469 2.664062 -2.253906 L 2.257812 -2.253906 C 2.234375 -2.421875 2.1875 -2.554688 2.117188 -2.644531 C 1.984375 -2.8125 1.761719 -2.894531 1.449219 -2.894531 C 1.195312 -2.894531 1.011719 -2.839844 0.898438 -2.734375 C 0.785156 -2.628906 0.730469 -2.503906 0.730469 -2.359375 C 0.730469 -2.203125 0.796875 -2.089844 0.925781 -2.019531 C 1.011719 -1.972656 1.207031 -1.914062 1.507812 -1.84375 L 1.953125 -1.742188 C 2.167969 -1.691406 2.335938 -1.625 2.453125 -1.539062 C 2.65625 -1.390625 2.757812 -1.175781 2.757812 -0.890625 C 2.757812 -0.539062 2.628906 -0.285156 2.371094 -0.132812 C 2.113281 0.0195312 1.816406 0.09375 1.476562 0.09375 C 1.078125 0.09375 0.769531 -0.0078125 0.542969 -0.210938 C 0.320312 -0.410156 0.210938 -0.683594 0.214844 -1.027344 Z "/>
</g>
<g id="glyph-0-2">
<path d="M 1.5625 -0.367188 C 1.707031 -0.367188 1.828125 -0.382812 1.921875 -0.414062 C 2.089844 -0.472656 2.226562 -0.578125 2.335938 -0.738281 C 2.421875 -0.867188 2.480469 -1.035156 2.519531 -1.234375 C 2.542969 -1.355469 2.550781 -1.464844 2.550781 -1.570312 C 2.550781 -1.964844 2.472656 -2.269531 2.316406 -2.488281 C 2.160156 -2.707031 1.90625 -2.816406 1.558594 -2.816406 L 0.792969 -2.816406 L 0.792969 -0.367188 Z M 0.359375 -3.1875 L 1.648438 -3.1875 C 2.085938 -3.1875 2.425781 -3.03125 2.667969 -2.722656 C 2.882812 -2.441406 2.992188 -2.082031 2.992188 -1.644531 C 2.992188 -1.304688 2.929688 -1 2.800781 -0.726562 C 2.578125 -0.242188 2.191406 0 1.644531 0 L 0.359375 0 Z "/>
</g>
</g>
</defs>
<g fill="rgb(43.137255%, 45.098039%, 50.980392%)" fill-opacity="1">
<use xlink:href="#glyph-0-0" x="30" y="23.421875"/>
<use xlink:href="#glyph-0-1" x="33" y="23.421875"/>
<use xlink:href="#glyph-0-2" x="36" y="23.421875"/>
</g>
</svg>
