<?xml version="1.0" encoding="UTF-8"?>
<svg xmlns="http://www.w3.org/2000/svg" xmlns:xlink="http://www.w3.org/1999/xlink" width="1080" height="1920" viewBox="0 0 1080 1920">
<defs>
<g>
<g id="glyph-0-0">
<path d="M 0.699219 -1.15625 C 0.710938 -0.953125 0.757812 -0.789062 0.84375 -0.660156 C 1.003906 -0.421875 1.289062 -0.304688 1.695312 -0.304688 C 1.875 -0.304688 2.042969 -0.332031 2.191406 -0.382812 C 2.480469 -0.484375 2.625 -0.664062 2.625 -0.925781 C 2.625 -1.121094 2.566406 -1.257812 2.445312 -1.34375 C 2.320312 -1.425781 2.125 -1.496094 1.863281 -1.554688 L 1.375 -1.664062 C 1.058594 -1.734375 0.835938 -1.816406 0.703125 -1.902344 C 0.476562 -2.050781 0.359375 -2.273438 0.359375 -2.574219 C 0.359375 -2.894531 0.472656 -3.160156 0.695312 -3.367188 C 0.917969 -3.574219 1.234375 -3.675781 1.644531 -3.675781 C 2.019531 -3.675781 2.339844 -3.585938 2.601562 -3.40625 C 2.863281 -3.222656 2.996094 -2.933594 2.996094 -2.535156 L 2.539062 -2.535156 C 2.515625 -2.726562 2.460938 -2.875 2.382812 -2.976562 C 2.234375 -3.164062 1.984375 -3.257812 1.628906 -3.257812 C 1.34375 -3.257812 1.136719 -3.195312 1.011719 -3.078125 C 0.886719 -2.957031 0.824219 -2.816406 0.824219 -2.65625 C 0.824219 -2.480469 0.894531 -2.351562 1.042969 -2.269531 C 1.140625 -2.21875 1.355469 -2.152344 1.695312 -2.074219 L 2.195312 -1.960938 C 2.4375 -1.90625 2.625 -1.828125 2.757812 -1.734375 C 2.984375 -1.566406 3.101562 -1.324219 3.101562 -1.003906 C 3.101562 -0.605469 2.957031 -0.320312 2.667969 -0.152344 C 2.378906 0.0195312 2.042969 0.105469 1.660156 0.105469 C 1.214844 0.105469 0.863281 -0.0078125 0.613281 -0.238281 C 0.359375 -0.464844 0.238281 -0.769531 0.242188 -1.15625 Z "/>
</g>
<g id="glyph-0-1">
<path d="M 2.992188 -3.585938 L 2.992188 -3.160156 L 1.78125 -3.160156 L 1.78125 0 L 1.289062 0 L 1.289062 -3.160156 L 0.0820312 -3.160156 L 0.0820312 -3.585938 Z "/>
</g>
<g id="glyph-0-2">
<path d="M 0.425781 -3.585938 L 3.042969 -3.585938 L 3.042969 -3.148438 L 0.902344 -3.148438 L 0.902344 -2.058594 L 2.882812 -2.058594 L 2.882812 -1.644531 L 0.902344 -1.644531 L 0.902344 -0.425781 L 3.078125 -0.425781 L 3.078125 0 L 0.425781 0 Z "/>
</g>
<g id="glyph-0-3">
<path d="M 0.425781 -3.585938 L 2.039062 -3.585938 C 2.359375 -3.585938 2.617188 -3.496094 2.8125 -3.316406 C 3.007812 -3.136719 3.105469 -2.882812 3.105469 -2.558594 C 3.105469 -2.277344 3.019531 -2.035156 2.84375 -1.828125 C 2.671875 -1.621094 2.402344 -1.515625 2.039062 -1.515625 L 0.914062 -1.515625 L 0.914062 0 L 0.425781 0 Z M 2.613281 -2.554688 C 2.613281 -2.820312 2.515625 -3 2.320312 -3.09375 C 2.214844 -3.144531 2.066406 -3.167969 1.878906 -3.167969 L 0.914062 -3.167969 L 0.914062 -1.925781 L 1.878906 -1.925781 C 2.097656 -1.925781 2.273438 -1.972656 2.410156 -2.066406 C 2.546875 -2.160156 2.613281 -2.320312 2.613281 -2.554688 Z "/>
</g>
<g id="glyph-0-4">
<rect x="0" y="0" width="0" height="0" mask="url(#mask-0)"/>
</g>
<g id="glyph-0-5">
<path d="M 0.15625 0 C 0.171875 -0.300781 0.234375 -0.5625 0.34375 -0.785156 C 0.453125 -1.007812 0.664062 -1.210938 0.976562 -1.394531 L 1.445312 -1.664062 C 1.65625 -1.785156 1.800781 -1.890625 1.886719 -1.976562 C 2.019531 -2.113281 2.085938 -2.265625 2.085938 -2.441406 C 2.085938 -2.644531 2.027344 -2.804688 1.90625 -2.925781 C 1.78125 -3.046875 1.621094 -3.105469 1.414062 -3.105469 C 1.113281 -3.105469 0.90625 -2.992188 0.789062 -2.765625 C 0.726562 -2.640625 0.695312 -2.472656 0.6875 -2.257812 L 0.242188 -2.257812 C 0.246094 -2.5625 0.304688 -2.808594 0.410156 -3 C 0.601562 -3.339844 0.9375 -3.507812 1.417969 -3.507812 C 1.820312 -3.507812 2.113281 -3.398438 2.296875 -3.183594 C 2.480469 -2.96875 2.574219 -2.726562 2.574219 -2.460938 C 2.574219 -2.179688 2.476562 -1.941406 2.277344 -1.742188 C 2.164062 -1.628906 1.960938 -1.488281 1.664062 -1.324219 L 1.332031 -1.136719 C 1.171875 -1.050781 1.046875 -0.964844 0.953125 -0.886719 C 0.792969 -0.746094 0.6875 -0.585938 0.648438 -0.414062 L 2.554688 -0.414062 L 2.554688 0 Z "/>
</g>
<g id="glyph-0-6">
<path d="M 1.929688 -3.683594 C 2.5625 -3.683594 3.03125 -3.480469 3.335938 -3.074219 C 3.574219 -2.757812 3.691406 -2.351562 3.691406 -1.855469 C 3.691406 -1.320312 3.554688 -0.875 3.285156 -0.519531 C 2.964844 -0.101562 2.507812 0.105469 1.917969 0.105469 C 1.367188 0.105469 0.933594 -0.078125 0.617188 -0.441406 C 0.335938 -0.792969 0.195312 -1.238281 0.195312 -1.773438 C 0.195312 -2.257812 0.316406 -2.675781 0.554688 -3.019531 C 0.867188 -3.460938 1.324219 -3.683594 1.929688 -3.683594 Z M 1.976562 -0.328125 C 2.40625 -0.328125 2.714844 -0.484375 2.90625 -0.789062 C 3.097656 -1.097656 3.195312 -1.449219 3.195312 -1.847656 C 3.195312 -2.269531 3.082031 -2.609375 2.863281 -2.867188 C 2.640625 -3.125 2.339844 -3.25 1.957031 -3.25 C 1.585938 -3.25 1.285156 -3.125 1.050781 -2.871094 C 0.816406 -2.617188 0.699219 -2.238281 0.699219 -1.742188 C 0.699219 -1.34375 0.796875 -1.011719 1 -0.738281 C 1.199219 -0.464844 1.527344 -0.328125 1.976562 -0.328125 Z "/>
</g>
<g id="glyph-0-7">
<path d="M 0.425781 -3.585938 L 2.914062 -3.585938 L 2.914062 -3.148438 L 0.914062 -3.148438 L 0.914062 -2.058594 L 2.671875 -2.058594 L 2.671875 -1.632812 L 0.914062 -1.632812 L 0.914062 0 L 0.425781 0 Z "/>
</g>
<g id="glyph-0-8">
<path d="M 1.652344 -1.238281 L 1.652344 -2.820312 L 0.53125 -1.238281 Z M 1.660156 0 L 1.660156 -0.855469 L 0.125 -0.855469 L 0.125 -1.285156 L 1.726562 -3.507812 L 2.101562 -3.507812 L 2.101562 -1.238281 L 2.613281 -1.238281 L 2.613281 -0.855469 L 2.101562 -0.855469 L 2.101562 0 Z "/>
</g>
</g>
<image id="source-9" x="0" y="0" width="0" height="0"/>
<mask id="mask-0">
<use xlink:href="#source-9"/>
</mask>
</defs>
<g fill="rgb(43.137255%, 45.098039%, 50.980392%)" fill-opacity="1">
<use xlink:href="#glyph-0-0" x="30" y="23.850586"/>
<use xlink:href="#glyph-0-1" x="33" y="23.850586"/>
<use xlink:href="#glyph-0-2" x="36" y="23.850586"/>
<use xlink:href="#glyph-0-3" x="39" y="23.850586"/>
<use xlink:href="#glyph-0-4" x="42" y="23.850586"/>
<use xlink:href="#glyph-0-5" x="43" y="23.850586"/>
<use xlink:href="#glyph-0-4" x="46" y="23.850586"/>
<use xlink:href="#glyph-0-6" x="47" y="23.850586"/>
<use xlink:href="#glyph-0-7" x="51" y="23.850586"/>
<use xlink:href="#glyph-0-4" x="54" y="23.850586"/>
<use xlink:href="#glyph-0-8" x="55" y="23.850586"/>
</g>
</svg>
