<?xml version="1.0" encoding="UTF-8"?>
<svg xmlns="http://www.w3.org/2000/svg" xmlns:xlink="http://www.w3.org/1999/xlink" width="1080" height="1920" viewBox="0 0 1080 1920">
<defs>
<g>
<g id="glyph-0-0">
<path d="M 0.554688 -5.691406 L 5.609375 -2.777344 L 0.554688 0.140625 Z "/>
</g>
<g id="glyph-1-0">
<rect x="0" y="0" width="0" height="0" mask="url(#mask-0)"/>
</g>
<g id="glyph-1-1">
<path d="M 2.652344 -1.960938 L 1.574219 -1.960938 L 1.574219 0 L 0.550781 0 L 0.550781 -4.996094 L 3.003906 -4.996094 C 3.355469 -4.992188 3.625 -4.949219 3.8125 -4.871094 C 4 -4.789062 4.160156 -4.671875 4.292969 -4.519531 C 4.402344 -4.394531 4.488281 -4.253906 4.550781 -4.097656 C 4.613281 -3.945312 4.644531 -3.769531 4.644531 -3.574219 C 4.644531 -3.335938 4.585938 -3.101562 4.464844 -2.875 C 4.34375 -2.644531 4.148438 -2.480469 3.871094 -2.386719 C 4.101562 -2.292969 4.265625 -2.164062 4.363281 -1.992188 C 4.457031 -1.820312 4.507812 -1.5625 4.507812 -1.210938 L 4.507812 -0.875 C 4.507812 -0.648438 4.515625 -0.492188 4.535156 -0.410156 C 4.5625 -0.28125 4.625 -0.1875 4.722656 -0.125 L 4.722656 0 L 3.574219 0 C 3.542969 -0.109375 3.519531 -0.199219 3.507812 -0.269531 C 3.480469 -0.410156 3.464844 -0.550781 3.460938 -0.699219 L 3.457031 -1.164062 C 3.453125 -1.480469 3.390625 -1.695312 3.28125 -1.800781 C 3.167969 -1.90625 2.960938 -1.960938 2.652344 -1.960938 Z M 3.285156 -2.867188 C 3.492188 -2.964844 3.597656 -3.152344 3.597656 -3.429688 C 3.597656 -3.734375 3.496094 -3.9375 3.296875 -4.042969 C 3.183594 -4.101562 3.011719 -4.128906 2.789062 -4.128906 L 1.574219 -4.128906 L 1.574219 -2.789062 L 2.757812 -2.789062 C 2.992188 -2.789062 3.167969 -2.8125 3.285156 -2.867188 Z "/>
</g>
<g id="glyph-1-2">
<path d="M 3.484375 -1.925781 L 3.484375 -4.996094 L 4.546875 -4.996094 L 4.546875 -1.925781 C 4.546875 -1.394531 4.464844 -0.980469 4.300781 -0.683594 C 3.992188 -0.140625 3.40625 0.128906 2.539062 0.128906 C 1.671875 0.128906 1.085938 -0.140625 0.777344 -0.683594 C 0.613281 -0.980469 0.527344 -1.394531 0.527344 -1.925781 L 0.527344 -4.996094 L 1.589844 -4.996094 L 1.589844 -1.925781 C 1.589844 -1.582031 1.632812 -1.332031 1.710938 -1.171875 C 1.839844 -0.890625 2.113281 -0.753906 2.539062 -0.753906 C 2.960938 -0.753906 3.238281 -0.894531 3.363281 -1.171875 C 3.445312 -1.332031 3.484375 -1.582031 3.484375 -1.925781 Z "/>
</g>
<g id="glyph-1-3">
<path d="M 4.570312 0 L 3.527344 0 L 1.484375 -3.550781 L 1.484375 0 L 0.511719 0 L 0.511719 -4.996094 L 1.605469 -4.996094 L 3.597656 -1.507812 L 3.597656 -4.996094 L 4.570312 -4.996094 Z "/>
</g>
</g>
<image id="source-330" x="0" y="0" width="0" height="0"/>
<mask id="mask-0">
<use xlink:href="#source-330"/>
</mask>
</defs>
<g fill="rgb(100%, 100%, 100%)" fill-opacity="1">
<use xlink:href="#glyph-0-0" x="30" y="26.713867"/>
</g>
<g fill="rgb(100%, 100%, 100%)" fill-opacity="1">
<use xlink:href="#glyph-1-0" x="36" y="26.713867"/>
<use xlink:href="#glyph-1-0" x="38" y="26.713867"/>
<use xlink:href="#glyph-1-1" x="40" y="26.713867"/>
<use xlink:href="#glyph-1-2" x="45" y="26.713867"/>
<use xlink:href="#glyph-1-3" x="50" y="26.713867"/>
</g>
</svg>
